<svg xmlns="http://www.w3.org/2000/svg" width="25" height="24" viewBox="0 0 25 24">
    <path fill="#000" fill-rule="nonzero" d="M4.814 16.324C3.587 17.4 1.12 19.42 0 20.33c1.973 1.843 4.5 3.085 7.338 3.41 7.215.825 13.707-4.586 14.501-12.087a17.13 17.13 0 0 0-.017-3.726l2.976-2.481-3.62-.414v.004C20.473 3 19.219 1.262 17.213.444 14.132-.812 10.295 1.54 9.917 5.11a5.823 5.823 0 0 0 1.706 4.79L3.814 3.144s-5.009 7.307 1 13.181zm9.838-11.1c.077-.726.705-1.25 1.402-1.17.697.08 1.201.733 1.124 1.458-.076.726-.704 1.25-1.402 1.17-.698-.08-1.201-.733-1.124-1.458z"/>
</svg>
