<?xml version="1.0" encoding="UTF-8"?>
<svg width="25px" height="25px" viewBox="0 0 25 25" version="1.1" xmlns="http://www.w3.org/2000/svg" xmlns:xlink="http://www.w3.org/1999/xlink">
    <!-- Generator: Sketch 54.1 (76490) - https://sketchapp.com -->
    <title>noun_play_1918995</title>
    <desc>Created with Sketch.</desc>
    <g id="Symbols" stroke="none" stroke-width="1" fill="none" fill-rule="evenodd">
        <g id="Youtube" fill="#000000">
            <g id="noun_play_1918995">
                <path d="M12.5,0 C19.4099379,0 25,5.59006211 25,12.5 C25,19.4099379 19.4099379,25 12.5,25 C5.59006211,25 0,19.4099379 0,12.5 C0,5.59006211 5.59006211,0 12.5,0 Z M7.41459627,6.94875776 L17.6242236,6.94875776 C19.0217391,6.94875776 20.1863354,8.11335404 20.1863354,9.51086957 L20.1863354,15.4891304 C20.1863354,16.886646 19.0217391,18.0512422 17.6242236,18.0512422 L7.41459627,18.0512422 C5.97826087,18.0512422 4.8136646,16.886646 4.8136646,15.4891304 L4.8136646,9.51086957 C4.8136646,8.11335404 5.97826087,6.94875776 7.41459627,6.94875776 Z M15.9549689,12.8881988 L12.1118012,16.0714286 C11.6071429,16.3043478 11.1413043,16.2267081 10.9860248,15.6055901 L10.9860248,9.39440994 C11.1413043,8.77329193 11.6071429,8.69565217 12.1118012,8.92857143 L15.9549689,12.1118012 C16.1490683,12.3447205 16.1490683,12.6552795 15.9549689,12.8881988 Z" id="Shape"></path>
            </g>
        </g>
    </g>
</svg>